<svg version="1.2" xmlns="http://www.w3.org/2000/svg" viewBox="0 0 964 1000" width="964" height="1000"><style>.a{fill:#fff}</style><path fill-rule="evenodd" class="a" d="m665.2 232.5l-47.7-11.2c-13.9-4.1-22.1-37.6-62.4-37.6h-123.8l21.6-84c7.3-27.5 10.5-64.4 43.3-64.4 13 0 135.9 34.6 159.6 40.6l158.1 42.2c27.2 6.7 52.2 14.4 79 21.1 33.5 8.3 40.7 23.6 30.2 58.4-14.2 46.9-28.4 108-42.4 157.1l-63.7 235.5c-15.5 62.7-36.4 131.6-52.6 195.6l-32.1 118.6c-20.1 67.3-16.2 71.1-105.1 45.3l-62.2-16.3 16.9-6.6c6.3-2.8 10.5-6 15.1-10.4 33.2-31.7 23-71.5 23-123.6q0-98.5 0-197.1c4.3 2 11.3 3.7 17.7 3.9l13.6-49.1c1.7-5.6 3.6-10.9 4.1-17.3l-30-6.8c-7-1-5.6 3.9-5.5-10.5l0.1-252.2c8.4 0.7 17 4 25.3 6.2 12.1 3.2 10.3 6.2 13.8 17.5l32.9 108c3.2 11.2 6.3 10.7 32.2 16.7 0-41.8-1.9-78.2-1.9-121l42.5 10.4c11.6 3.7 12.7 14.9 23.8 33 7.5 12.2 12.4 7.6 24.1 13.2 0-62.4-12.8-40.5 13-78.9 4.3-6.4 11.9-14.5 12.6-22.6-18.9-1.6-11.7-8.5-29.1 2.3l-26 15.2c-16 0-35.4-10.4-51.1-11.7 9.2-17.2 60.6-96.8 62.9-105.4-10.8-0.9-17.1-5.9-27.5-5.9-6.3 0-42.1 38.3-50.8 45.2zm-173.9-232.3h5.9c15.3 0.5 31.2 5.1 47.8 10 51.2 15.1 365.5 92.8 385.3 105.5 20.9 13.3 37.6 38.6 31.6 71.7-2.8 14.8-7.8 29.7-11.2 43.6-3.6 14.6-7.2 26.9-11.4 41.4-4.4 15.3-7.6 27.9-11.4 43.3-30.8 123.4-70.6 256.5-103 381.9l-23.4 86.2c-14 47.6-32.4 127.7-46.1 169-4.1 12.2-12.2 25.2-22.2 32.6-12.8 9.5-24.6 13.6-36.2 14.4h-10.6c-13.9-0.9-27.8-5.4-43.3-9.3l-116.3-31c-35.2-10.2-84.4-26.1-121.2-26.1h-346c-22.7 0-59 5.2-59-39v-671.6c0-47.3 43.1-39.1 68.8-39.1h324.4c4.4-18.6 9.2-36.7 14.6-55.8 7.7-27 19.2-86 36.1-104.8 14.6-16.3 30.3-22.3 46.8-22.9zm93.3 864.9v-613c0-17.8-15-33.2-29.5-33.2h-519.1v679.4h517.1c18.2 0 31.5-15.2 31.5-33.2zm-479.8-386.6c0-72.2 56.7-149.4 125-176.5 181.6-72.1 341 107.5 270.8 268.9-19.2 44.1-56 84.1-99.5 104.2-93.9 43.4-196.2 16.5-258.7-66l-18-30.9c-18.3-40.9-19.6-53.7-19.6-99.7zm155.3-148.3c-16.5 1.3-49.4 22.5-60.4 31.8-10.8 9.1-36.5 37.9-39.9 52.1h72.8c0.4-19.4 20-69.9 27.5-83.9zm110.4 21.1l19.4 62.8h70.8c-1-12-19.6-32.7-28.7-41.8-3.9-3.8-7.2-6.8-11.1-10.4-12.8-11.9-39-27.2-58.5-31.7 1.2 9.3 4.9 13.2 8.1 21.1zm-76.3-8.8c-4.1 8.2-7.6 13.9-10.7 22.5-5.5 15.1-11.5 32.1-15.5 49.1h84.5c-1.1-12.9-11.3-40.9-16.5-53.9-3.4-8.4-7.5-15.4-11.6-23.6-9.8-19.5-8.7-16.2-19.1-16.2-1.3 5-8 16-11.1 22.1zm-67.5 106.7h-76.7c-13.2 0-10 56.1-7.4 69.9 3.8 20.4-3 14.1 84.1 14.1 0-11.1-2-13.5-2-25.4v-37.1c0-10.8 2-11.6 2-21.5zm167.1 84h82.6c0.2-8.2 2.9-14.6 3.7-21.8 4.6-45.2-3.3-45.5-3.7-62.2h-80.6v9.8c0 16.5 3.7 62.5-2 74.2zm-35.4-84h-96.3c0 12.4-2 16.4-2 29.3l2 54.7h96.3c2.3-27.2 6.3-57.2 0-84zm-157.7 170.4c7.1 6.3 19.4 14.7 27.9 19.1 5.3 2.6 10.7 5.3 16 7.5 5.3 2.1 10.8 3.9 15.5 6.1-1.7-7.5-25.1-55-27.5-83.9h-72.8c11.6 21.7 22.8 35.3 40.9 51.2zm74.9-25.6c5.7 18.5 15.7 42 25.6 58.5 2.6 4.4 2.2 7.6 8.1 7.6 18.6 0 40.3-79.3 43.2-91.7h-84.5c2.8 5.7 5.6 19 7.6 25.6zm86.8 58.3c9-6.2 21-3.9 58.7-33.4 11-8.7 13.3-12.6 22.3-22.8 4.6-5.1 15.7-21 17.3-27.7h-72.8c0 14.4-11.8 49.2-18.3 63.7-1.9 4.1-2.2 5.2-4.1 9.7-1 2.3-1.4 3.2-2.6 5.2l-2.8 3.7zm-224.2 144.5h344.1v35.1h-344.1zm485.7 119.1c0-10.6 26.4-104.2 29.9-116.7 10.2-37.2 22-77.2 31-115.6 8.8 0.2 24.4 5.7 33.5 7.8 0 15.4-53.6 200.9-61 232.3-9.9-2.3-22.1-7.5-33.4-7.8zm78.6-298.7c3.6-7.5 7-24.7 9.6-33.4 2.6-8.5 7.4-24.2 8.1-33 11.4 2.6 24 7.1 35.4 9.8l-17.7 66.4c-7.3-0.7-29.9-7.2-35.4-9.8zm-64.8-138.6c2-8.8 6.5-28.3 9.8-35.2 9.8 4.7 24.4 5.5 33.4 9.8-4.1 8.4-5.6 24.4-9.8 33.2-10.7-0.9-21.6-6.9-33.4-7.8zm64.8 15.6c4.3-8.8 5.8-24.8 9.9-33.2 7.9 1.8 27 6.7 33.4 9.8-4.3 8.9-5.1 23.4-9.8 33.1-8-1.8-27.1-6.7-33.5-9.7zm66.9 19.5c0-13 5.3-24.3 7.9-35.1 9.6 2.2 23.6 7 33.4 7.8-0.5 5.9-7.6 30.6-9.9 35.1-4.7-2.3-24.4-7.6-31.4-7.8z"/></svg>